<?xml version="1.0" encoding="utf-8"?>
<!-- Generator: Adobe Illustrator 26.0.1, SVG Export Plug-In . SVG Version: 6.00 Build 0)  -->
<svg version="1.1" xmlns="http://www.w3.org/2000/svg" xmlns:xlink="http://www.w3.org/1999/xlink" x="0px" y="0px"
	 viewBox="0 0 1000 500" style="enable-background:new 0 0 1000 500;" xml:space="preserve">
<style type="text/css">
	.st0{fill:#C2283F;}
	.st1{fill:#C32E44;}
	.st2{fill:#C32D44;}
	.st3{fill:#C84054;}
	.st4{fill:#F5E0E3;}
	.st5{fill:#52AF56;}
	.st6{fill:#D83232;}
	.st7{fill:#2FAFA9;}
	.st8{fill:#5E3D12;}
	.st9{fill:#009245;}
	.st10{fill:#FFFFFF;}
	.st11{font-family:'MicrosoftJhengHeiLight';}
	.st12{font-size:21px;}
	.st13{fill:none;stroke:#000000;stroke-miterlimit:10;}
	.st14{fill:#FC9FF1;}
	.st15{fill:none;}
</style>
<g id="圖層_1">
	<path class="st0" d="M494.08,41.27C424.44,42.26,364.89,81.34,338.72,137h310.13C622.93,81.37,563.55,42.26,494.08,41.27z"/>
	<path class="st0" d="M493.94,415c48.74-0.39,90.41-15.91,108.73-38H385.62C403.76,399.08,445.32,414.61,493.94,415z"/>
	<path class="st1" d="M602.51,310.37c-9.66-6.61-21.56-8.83-31.1-15.86c-3.58-2.64-6.26,1.87-9.03,3.69
		c-5.45,3.56-10.45,8.17-18.69,6.57c5.49-3.91,10.25-7.22,14.9-10.66c1.59-1.18,3.81-2.34,3.11-4.81c-0.74-2.59-3.21-3.16-5.57-3.67
		c-2.44-0.53-4.64-0.08-6.81,1.13c-2.32,1.29-4.64,2.69-7.14,3.52c-3.74,1.23-8.85,5.03-11.25,0.89c-2.5-4.32,4.16-4.88,6.58-7.3
		c0.39-0.39,0.59-0.95,0.95-1.56c-1.65-3.63-5.64-0.03-7.69-2.59c7.69-7.02,21.17,2.96,28.42-9.59c-6.69,0.78-12.18,4.21-17.94,1.32
		c-2.71-1.36-5.98-2.22-2.45-5.98c0.4-0.42,1.16-1.02,1.06-1.33c-3.64-11.53,6.08-12.63,12.75-16.1c2.38-1.24,4.52-2.65,4.88-6.28
		c-5.41-0.88-10.6,0.82-15.78-0.29c-4.7-1.01-4.87,4.1-6.96,6.63c-2.88,3.49-4.16,11.78-9.96,8.24c-5.62-3.43,1.31-8.02,3.52-11.34
		c8.07-12.14,16.77-23.86,26.64-37.72c-12.91,2.99-24.32,12.34-35.04-0.75c15.17,3.09,27.59-3.24,40.11-9.05
		c2.09-0.97,4.64-2.22,4.95-4.69c0.39-3.11-2.75-3.25-4.79-4.14c-4.5-1.95-7.18-5.83-11.53-10.12c5.2-0.75,9.1-0.03,12.54,1.76
		c5.88,3.06,11.14,5.84,18.03,1.53c3.38-2.11,7.97,0.28,9.58,4.12c1.9,4.55-3.31,4.68-5.57,6.31c-2.32,1.67-5.39,2.28-8.06,3.51
		c-5.86,2.69-9.83,6.59-8.29,13.69c5.32-0.8,11.84,0.46,13.39-7.27c5.16,1.74,11.37,2.27,15.19,5.54c3.85,3.3-1.85,5.34-4.11,7.58
		c-2.01,1.99-5.29,2.69-6.34,6.13c4.89,1.37,12.97,1.53,11.62,7.42c-1.26,5.49-9.88,4.9-15.29,6.93c-0.47,0.18-1.44,0.1-1.61-0.19
		c-6.33-10.37-10.54,0.39-17.08,0.31c2.96,3.77,5.76,2.98,7.45,2.4c10.63-3.67,16.44,5.44,24.25,8.91c2.6,1.15,0.42,4.53-1.12,6.84
		c-3.99,5.96-11.62,5.07-16.72,8.72c0.22,0.75,0.26,1.54,0.51,1.61c13.42,3.84,13.42,3.84,4.37,15.12
		c-7.07,8.81-7.08,9.07,3.49,12.41c13.62,4.3,26.55,10.5,40.44,13.55c-0.57,4.54-5.71,1.66-6.78,4.92
		C613.18,310.37,607.85,310.37,602.51,310.37z M559.75,255.53c7.17-0.33,14-4.48,21.49-1.69c1.39,0.52,2.91-0.62,3.02-2.31
		c0.04-0.54-1.11-1.72-1.6-1.65c-7.53,0.98-14.88-2.6-22.59-0.24c-7.66,2.35-1.99,4.02-0.16,6.05c-10.6-4.55-12.08,5.65-19.23,11.32
		c9.04-0.08,14.21-3.8,19.49-7.05C562.59,258.47,559.28,257.08,559.75,255.53z M575.95,271.75c-5.22-0.41-8.67,1.88-12.07,3.86
		c-1.96,1.14-5.63,2.62-2.92,5.75c2.03,2.35,5.24,4.08,8.38,1.08C572.25,279.65,575.03,276.71,575.95,271.75z M544.57,234.4
		c5.17,0.23,8.89-2.43,12.98-3.7c3.1-0.97,2.34-3.57,1.28-5.78c-0.6-1.25-1.33-2.79-3.19-1.42
		C551.49,226.53,544.61,226.67,544.57,234.4z M563.87,227.29c3.82-3.32,7.13-6.61,7.69-11.73c0.02-0.14-1.66-0.87-2.15-0.6
		C564.67,217.51,562.13,221.2,563.87,227.29z M587.05,208.01c-7.79,3.33-8.12,3.7-9.79,10.99
		C581.98,216.55,584.98,213.36,587.05,208.01z"/>
	<path class="st0" d="M454.98,217.71c10.64,1.25,10.69,1.27,6.22,11.71c-0.71,1.65-0.58,2.55,0.93,3.59
		c1.16,0.8,2.87,2.95,2.83,2.99c-5.72,5.61,2.28,17.62-9.56,20.32c-0.78,0.18-1.43,0.94-2.49,1.67c6.66,1.53,6.84,1.89,11.78-0.49
		c6.37-3.08,12.1-0.14,17.98,1.12c2.37,0.51,4.08,2.56,3.97,5.24c-0.15,3.78-3.43,2.65-5.38,2.73c-9.74,0.42-19.47-0.67-29.26,0.21
		c-11.78,1.06-22.14,7.94-34.19,7.67c-4.77-0.11-5.68,2.87-5.45,6.98c0.26,4.68,0.07,9.38-0.01,14.07
		c-0.04,2.38-0.25,4.85-3.06,5.73c-3.08,0.97-5.53-0.68-6.7-3.04c-3.35-6.78-7.54-13.73-3-21.49c1.73-2.97,0.29-6.26,1.84-9.04
		c1.27-2.28,3.32-5.04,0.24-6.69c-2.56-1.38-3.6,2.07-5.25,3.59c-6.2,5.74-12.62,11.24-21.47,12.52c-1.91,0.28-3.99,0.92-5.88-0.97
		c17.09-9.62,26.99-24.71,34.3-41.89c-8.34,1.7-14.86,6.7-22.92,7.45c-3.2,0.3-6.96,1.1-8.68-2.54c-1.57-3.32,0.52-6.23,2.72-8.67
		c1.28-1.41,2.94-4.91,4.01,0.44c0.6,3.01,3.28,1.47,5.08,0.85c5.84-2,11.66-4.08,17.47-6.19c12.84-4.66,17.17-1.45,15.54,12.55
		c6.46-3.46,7.85-11.11,13.85-14.03c0.98-0.06,1.97-0.11,2.95-0.17c0.45,0.54,0.89,1.08,1.34,1.63c0.19-0.54,0.39-1.08,0.58-1.63
		l-0.11,0.06C442.56,224.25,448.12,218.98,454.98,217.71z M438.63,243.9c-2.91,1.9-5.99-1.39-8.45-0.08
		c-2.25,1.2-7.62-0.97-6.42,4.63c1.43,6.71-1.53,5.45-5.42,3.23c-1.76-1.01-4.38-4.23-5.55-0.6c-1.5,4.66-1.47,9.99,0.89,14.58
		c1.43,2.76,4.49,0.98,6.35,0.27c4.77-1.81,13.58-3.09,12.41-7.61c-1.95-7.54,2.99-8.45,6.35-11.5c4.92-2.18,10.7-3.4,12.77-11.39
		C446.31,238.87,442.47,241.38,438.63,243.9z M452.05,224.31c-6.89,0.82-12.28,3.98-16.99,10.16
		C443.16,233.89,447.9,229.56,452.05,224.31z"/>
	<path class="st2" d="M435.23,220.57c-0.13-4.13-4.18-4.13-7.24-6.02c4.06-3.1,8.52-3.3,12.55-4.48c1.76-0.51,3.82-0.62,4.11-2.6
		c0.34-2.33-1.52-3.79-3.53-4.43c-3.33-1.07-6.78-1.77-10.74-2.77c3.45-5.37,11.4-2.23,13.36-7.26c1.96-5.03-3.34-8.94-4.93-14.18
		c5.08-1.37,9.01,0.43,12.32,3.8c3.48,3.54,3.63,9.54,11.19,10.28c3.58,0.35-0.67,4.05-2.95,5.52c-1.58,1.02-4.59,0.68-4.25,3.6
		c0.33,2.82,2.87,2.47,4.86,2.53c3.37,0.1,7.09,0.25,7.61,4.31c0.6,4.65-3.88,4.26-6.73,5.27c-1.93,0.68-3.95,1.1-5.93,1.63
		C447.79,215.05,440.97,215.64,435.23,220.57z"/>
	<path class="st1" d="M440.62,276.87c7.49-2.45,14.77-5.79,22.88-5.66c6.01,0.1,8.95,4.6,6.79,10.03c-1.69,4.25-7.46,6.5-5.79,12.65
		c0.38,1.39-3.33,1.46-5.33,1.54c-3.81,0.16-7.61,0.32-11.42,0.47c-0.01-1.03-0.02-2.05-0.03-3.08c3.78-2.62,8.49-4.22,10.31-9
		c0.71-1.86,2.2-4.35,1.53-5.6c-1.52-2.8-4.1,0.26-6.12-0.04C449.17,277.57,444.13,284.04,440.62,276.87z"/>
	<path class="st3" d="M429.86,280.41c0.76,12.86,3.91,15.05,17.87,12.42c0.01,1.03,0.02,2.05,0.03,3.08
		c-2.92,0.19-5.87,0.18-8.76,0.61c-10.02,1.48-16.6-4.42-15.65-14.36c0.16-1.67,0.69-4.18,1.82-4.72
		C427.48,276.33,427.76,280.1,429.86,280.41z"/>
	<path class="st2" d="M435.29,220.36c-0.03,1.22-0.06,2.45-0.08,3.67c0,0,0.11-0.06,0.11-0.06c-0.64,0-1.28,0-1.92,0
		c-0.98,0.06-1.97,0.11-2.95,0.17C431.78,222.52,431.62,219.03,435.29,220.36z"/>
	<path class="st4" d="M433.4,223.97c0.64,0,1.28,0,1.92,0c-0.19,0.54-0.39,1.08-0.58,1.63C434.29,225.05,433.84,224.51,433.4,223.97
		z"/>
	<path class="st5" d="M381.35,183.26c0,0,3.89,27.42,29.77,27.95C411.13,211.2,403.7,189.36,381.35,183.26z"/>
	<path class="st5" d="M573.44,191.19c0,0-14.59-30.14-44.64-21.2C528.79,169.99,545.41,192.41,573.44,191.19z"/>
	<path class="st6" d="M567.32,352.03H427.13c-5.69,0-10.3-4.61-10.3-10.3v-11.56c0-5.69,4.61-10.3,10.3-10.3h140.18
		c5.69,0,10.3,4.61,10.3,10.3v11.56C577.61,347.42,573,352.03,567.32,352.03z"/>
	<g>
		<path class="st7" d="M687,315.6c-1.96-0.88-5.82-1.6-8.57-1.6h-60.29c-2.75,0-6.61,0.72-8.57,1.6c0,0,0,0,0,1.97
			c0,0.43,0,0.43,0,0.43c0.13,0.44,0.18,0.99,0.12,1.23s-0.12,2.8-0.12,5.12s-2.25,4.21-5,4.21h-18.43c-2.75,0-6.61,0.72-8.57,1.6
			c0,0,0,0,0,1.97c0,1.97,0,1.97,0,1.97c1.96,0.88,5.82,1.6,8.57,1.6h55.07c2.75,0,4.98,0.11,4.96,0.23s-0.04,2.5-0.04,4.98
			s-2.25,4.5-5,4.5h-55c-2.75,0-6.61,0.72-8.57,1.6c0,0,0,0,0,1.97c0,0.15,0,0.15,0,0.15c0.02,0.15,0.03,0.35,0.02,0.42
			s-0.02,2.47-0.02,5.14s0.02,5.05,0.04,5.3c0.02,0.24-2.08,0.85-4.83,0.85h-18.64c-2.75,0-5.8,0.36-6.79,0.8
			c-0.98,0.44-1.79,2.77-1.79,2.77s0.36,0.8,0.8,1.79s5.02,1.79,7.77,1.79h60.29c2.75,0,5.8-0.36,6.79-0.8s1.79-2.77,1.79-2.77
			s-0.36-0.8-0.8-1.79s-5.02-1.79-7.77-1.79h-23.21c-2.75,0-4.95-0.19-4.89-0.42s0.11-2.44,0.11-4.37s2.25-3.5,5-3.5h55
			c2.75,0,6.61-0.72,8.57-1.6c0,0,0,0,0-1.97c0-0.49,0-0.49,0-0.49c-0.15-0.49-0.21-1.1-0.14-1.37c0.08-0.26,0.14-3.19,0.14-5.86
			s-0.05-5.22-0.12-5.65c-0.07-0.44-0.23-2.03,0.12-2.73c0,0,0,0,0-0.75c0-1.97,0-1.97,0-1.97c-1.96-0.88-5.82-1.6-8.57-1.6h-23
			c-2.75,0-5-1.67-5-3.71s2.25-3.71,5-3.71h55c2.75,0,6.61-0.72,8.57-1.6c0,0,0,0,0-1.97S687,315.6,687,315.6z"/>
	</g>
	<g>
		<path class="st7" d="M306.57,315.6c1.96-0.88,5.82-1.6,8.57-1.6h60.29c2.75,0,6.61,0.72,8.57,1.6c0,0,0,0,0,1.97
			c0,0.43,0,0.43,0,0.43c-0.13,0.44-0.18,0.99-0.12,1.23c0.06,0.24,0.12,2.8,0.12,5.12s2.25,4.21,5,4.21h18.43
			c2.75,0,6.61,0.72,8.57,1.6c0,0,0,0,0,1.97c0,1.97,0,1.97,0,1.97c-1.96,0.88-5.82,1.6-8.57,1.6h-55.07
			c-2.75,0-4.98,0.11-4.96,0.23s0.04,2.5,0.04,4.98s2.25,4.5,5,4.5h55c2.75,0,6.61,0.72,8.57,1.6c0,0,0,0,0,1.97
			c0,0.15,0,0.15,0,0.15c-0.02,0.15-0.03,0.35-0.02,0.42s0.02,2.47,0.02,5.14s-0.02,5.05-0.04,5.3s2.08,0.85,4.83,0.85h18.64
			c2.75,0,5.8,0.36,6.79,0.8s1.79,2.77,1.79,2.77s-0.36,0.8-0.8,1.79s-5.02,1.79-7.77,1.79h-60.29c-2.75,0-5.8-0.36-6.79-0.8
			s-1.79-2.77-1.79-2.77s0.36-0.8,0.8-1.79s5.02-1.79,7.77-1.79h23.21c2.75,0,4.95-0.19,4.89-0.42s-0.11-2.44-0.11-4.37
			s-2.25-3.5-5-3.5h-55c-2.75,0-6.61-0.72-8.57-1.6c0,0,0,0,0-1.97c0-0.49,0-0.49,0-0.49c0.15-0.49,0.21-1.1,0.14-1.37
			s-0.14-3.19-0.14-5.86s0.05-5.22,0.12-5.65s0.23-2.03-0.12-2.73c0,0,0,0,0-0.75c0-1.97,0-1.97,0-1.97c1.96-0.88,5.82-1.6,8.57-1.6
			h23c2.75,0,5-1.67,5-3.71c0-2.04-2.25-3.71-5-3.71h-55c-2.75,0-6.61-0.72-8.57-1.6c0,0,0,0,0-1.97S306.57,315.6,306.57,315.6z"/>
	</g>
	<path class="st8" d="M673.97,174c0,0-13.89,8.13-14.24,21.23c0,0-1.25,16.21,1.27,22.93s7.18,24.48,6.83,25.85
		c0,0,3.79,28.62-7.58,34.48c0,0-2.76,0.69-12.41,1.38c0,0-4.48,0.34-7.58,5.17l-7.24,9.31c0,0-5.52,13.1-5.52,14.82
		s4.83,1.38,4.83,1.38s0.69-14.14,4.83-18.27c0,0,3.79-6.55,9.65-9.65c0,0,13.1-1.38,17.58-3.1c0,0,10.69-5.17,10.69-25.17
		c0,0-8.27-35.17-11.38-42.06c0,0-2.07-16.55,2.41-25.51C666.11,186.78,665.97,185.69,673.97,174z"/>
	<path class="st8" d="M357.27,323.4c0,0,7.58-17.56,0.54-30.48c0,0-8-16.56-13.97-21.3c-5.97-4.74-19.99-18.68-20.47-20.25
		c0,0-19.36-25.04-12.7-38.65c0,0,2.02-2.59,10.07-9.99c0,0,3.72-3.46,3.73-10.3l1.11-14.06c0,0-2.52-16.53-3.49-18.19
		c-0.97-1.67-4.99,2.03-4.99,2.03s7.32,14.16,6.03,21.05c0,0,0.36,8.98-3.02,16.08c0,0-10.68,10.47-13.63,15.27
		c0,0-6.44,12.46,4.77,31.81c0,0,26.95,28.25,33.53,32.76c0,0,11.09,14.57,12.19,26.37C356.97,305.55,357.7,306.5,357.27,323.4z"/>
	<path class="st9" d="M343.7,243.73c0,0-3.94-8.31-14.31-10.28c-10.37-1.97-11.55-8.45-11.55-8.45s1.01,8.76,3.54,11.46
		c2.54,2.7,16.84,5.01,17.33,4.7C339.19,240.86,343.44,243.18,343.7,243.73z"/>
	<path class="st9" d="M659,226c0,0-3.2-8.83-16.97-11.84c-13.77-3.01-13.66-9.7-13.66-9.7s-0.97,9.01,1.81,12s21.88,6.73,22.63,6.46
		C653.56,222.64,658.79,225.41,659,226z"/>
	<path class="st9" d="M673.48,241.95c0,0,9.54-4.98,12.21-18.5s10.02-14.93,10.02-14.93s-9.93,1.13-13.09,4.39
		s-6.37,21.93-6.04,22.57C676.91,236.12,674.11,241.62,673.48,241.95z"/>
	<text transform="matrix(1 0 0 1 459.9365 342.9492)" class="st10 st11 st12">鮮 花 店</text>
	<path class="st13" d="M533.6,519.5h37.89C558.86,519.16,546.26,519.37,533.6,519.5z"/>
	<path class="st14" d="M462.5,51.5c0,0-17,3-18,7s-12,15-12,15s14-1,22-7s8-15.61,8-15.61"/>
	<path class="st14" d="M510,81.77c0,0-13.85-0.67-15.51,2.65s-12.62,10.86-12.62,10.86s11.08,1.85,18.62-1.87s9.65-12.17,9.65-12.17
		"/>
	<path class="st14" d="M538,103.77c0,0-13.85-0.67-15.51,2.65c-1.66,3.32-12.62,10.86-12.62,10.86s11.08,1.85,18.62-1.87
		s9.65-12.17,9.65-12.17"/>
	<path class="st14" d="M546.52,123.28c0,0,3.76,14.07,5.99,14.6c2.23,0.52,9.43,8.9,9.43,8.9s-2.32-11.71-6.5-17.96
		c-4.18-6.26-9.24-5.49-9.24-5.49"/>
	<path class="st14" d="M525.72,133.56c0,0-10.22-3.16-12.98-0.12s-14.47,8.63-14.47,8.63s7.59,3.85,14.98,1.46
		s12.8-10.49,12.8-10.49"/>
	<path class="st14" d="M439.06,99.58c0,0-10.61-8.93-13.94-7.3c-3.33,1.64-16.62,0.98-16.62,0.98s7.7,8.19,15.94,9.8
		c8.24,1.61,15.05-3.83,15.05-3.83"/>
	<path class="st14" d="M589.28,100.38c0,0-11.28-8.07-14.47-6.17c-3.19,1.89-16.49,2.29-16.49,2.29s8.32,7.56,16.66,8.51
		c8.35,0.95,14.71-5,14.71-5"/>
	<path class="st14" d="M587.4,89.61c0,0,7.27,6.62,10.46,5.25s14.46-1.26,14.46-1.26s-4.92-6.13-11.66-7.13
		c-6.74-1-13.7,3.43-13.7,3.43"/>
	<path class="st14" d="M531.71,50.95c0,0,3.98,7.1,8.67,7.22c4.69,0.12,17.81,4.02,17.81,4.02s-1.56-5.96-8.78-8.95S531,51,531,51"
		/>
	<path class="st15" d="M493.83,38.5c0.87,0,1.74,0.02,2.61,0.03c0.87-0.01,1.74-0.03,2.61-0.03H493.83z"/>
</g>
<g id="圖層_2">
</g>
</svg>
